<svg xmlns="http://www.w3.org/2000/svg" xmlns:svg="http://www.w3.org/2000/svg" id="svg2494" width="256" height="170.667" version="1.0" viewBox="0 0 27 12"><metadata id="metadata3"/><rect id="rect2496" width="27" height="18" x="0" y="-3" style="fill:navy"/><path id="path2498" d="m 4,-3.0000003 2,0 0,4.00000003 4,0 0,1.99999997 -4,0 0,4 21,0 0,2 -27,0 0,-2 4,0 0,-4 -4,0 0,-1.99999997 4,0 0,-4.00000003 z m 6,2 17,0 0,2.00000003 -17,0 0,-2.00000003 z m 0,4 17,0 0,2 -17,0 0,-2 z m -10,4 0,2 0,-2 z M 0,11 l 27,0 0,2.000002 -27,0 L 0,11 z" style="fill:#fff"/></svg>