<svg xmlns="http://www.w3.org/2000/svg" xmlns:svg="http://www.w3.org/2000/svg" id="svg2739" width="256.004" height="128.024" version="1.0" viewBox="0 0 60.001 15.003"><metadata id="metadata3"/><clipPath id="t"><path id="path2742" d="m 30,15 30,0 0,15 -30,-15 z m 0,0 0,15 L 0,30 30,15 z M 30,15 0,15 0,0 30,15 z m 0,0 0,-15 30,0 -30,15 z"/></clipPath><path id="path2744" d="m 0.16572815,-7.373456 0,30 59.99999985,0 0,-30 -59.99999985,0 z" style="fill:#00247d"/><path id="path3158" d="M 14.39641,3.4951424 13.440286,2.6501954 0.16572815,-3.998201 l 4.3328e-4,-3.378304 6.70901217,0.0021 18.2831904,9.1573695 0.489179,1.5787159 -11.251133,0.133413 z" style="fill:#fff;fill-opacity:1;fill-rule:evenodd;stroke:none"/><path id="path3160" d="m 45.935026,3.4963704 0.956124,-0.844947 13.274559,-6.6483974 -4.34e-4,-3.378304 -6.709012,0.0021 -18.283191,9.1573699 -0.489179,1.5787165 11.251133,0.133413 z" style="fill:#fff;fill-opacity:1;fill-rule:evenodd;stroke:none"/><path id="path3162" d="m 45.936014,11.757407 0.956124,0.844947 13.274558,6.648396 -4.34e-4,3.378304 -6.709012,-0.0021 -18.28319,-9.15737 -0.489179,-1.578716 11.251133,-0.133413 z" style="fill:#fff;fill-opacity:1;fill-rule:evenodd;stroke:none"/><path id="path3164" d="m 14.399428,11.756581 -0.956124,0.844947 -13.27455797,6.648397 4.33e-4,3.378304 6.70901207,-0.0021 18.2831909,-9.157419 0.489179,-1.578716 -11.251133,-0.133413 z" style="fill:#fff;fill-opacity:1;fill-rule:evenodd;stroke:none"/><path id="path2748" d="m 0,0 c 7.691981,3.8369888 15.370146,7.6739775 23.042447,11.510966 0.0446,0.0223 0.0892,0.04461 0.133796,0.06691 C 35.454865,17.718586 47.718586,23.859293 60,30 M 60,0 0,30" clip-path="url(#t)" transform="translate(0.16572815,-7.373456)" style="stroke:#cf142b;stroke-width:4"/><path id="path2750" d="m 30.165728,-7.373456 0,8.8712631 0,0.3314566 0,20.7972803 M 0.16572815,7.6265445 l 59.99999985,0" style="stroke:#fff;stroke-width:10"/><path id="path2752" d="m 30.165728,-7.373456 0,30 M 0.16572815,7.6265445 l 59.99999985,0" style="stroke:#cf142b;stroke-width:6"/></svg>