<svg xmlns="http://www.w3.org/2000/svg" xmlns:svg="http://www.w3.org/2000/svg" id="svg8218" width="168.6" height="168.6" version="1.1"><metadata id="metadata3"/><defs id="defs8220"><clipPath id="clipPath23999" clipPathUnits="userSpaceOnUse"><path id="path24001" d="m 304.32,421.22 135.42,0 0,119.1 -135.42,0 0,-119.1 z"/></clipPath></defs><g id="layer1" transform="translate(-8.5,-875.26212)"><path id="path66549" d="m 12.514286,1039.8479 160.571424,0 0,-160.57149 -160.571424,0 0,160.57149 z" style="fill:#fff;fill-opacity:1;stroke:none"/><path id="path66551" d="m 111.4,898.96212 -2.7,0.3 -2.4,0.6 -2.1,1.2 -3.6,3.6 -1.200001,2.1 -0.6,2.4 -0.3,2.7 0.3,2.7 0.6,2.4 1.200001,2.1 1.8,2.09996 1.8,1.5 2.1,1.2 2.4,0.6 2.7,0.3 2.7,-0.3 2.4,-0.6 2.1,-1.2 2.1,-1.5 1.5,-2.09996 1.2,-2.1 0.6,-2.4 0.3,-2.7 -0.3,-2.7 -0.6,-2.4 -1.2,-2.1 -1.5,-1.8 -2.1,-1.8 -2.1,-1.2 -2.4,-0.6 -2.7,-0.3 z m 27.3,51.59996 -15.3,0 -8.4,-22.2 -3,0 -3,-0.3 -3,-0.6 -2.7,-1.2 -2.4,-1.5 -2.100001,-2.1 -0.9,-1.2 -0.6,-1.2 -0.9,-1.49996 -0.3,-1.8 -30.6,0 -15.9,25.79996 9.3,5.4 12.3,-20.4 18.9,0 -22.2,36 0,27.3 -31.2,0 0,10.50002 42.9,0 0,-27.60002 30.900001,45.60012 13.8,0 -33.600001,-51.30012 17.100001,-27.3 7.8,18.9 23.1,0 0.3,60.00012 -10.8,10.5 -12.6,0 8.7,-8.7 -14.1,0 -8.4,8.7 -65.700001,0 10.5,-10.5 0,-15.6 -12.6,0 0,-15.60012 12.6,0 0,-99.89996 92.100001,0 0,61.79996 z m 38.4,-75.29996 -168.6,0 0,168.60008 168.6,0 0,-168.60008 z" style="fill:#000;fill-opacity:1;fill-rule:evenodd;stroke:none"/></g></svg>