<svg xmlns="http://www.w3.org/2000/svg" xmlns:svg="http://www.w3.org/2000/svg" xmlns:xlink="http://www.w3.org/1999/xlink" id="svg3518" width="30.588" height="30.141" version="1.1"><defs id="defs3520"><linearGradient id="linearGradient5729" x1="18.18" x2="15.672" y1="14.206" y2="19.3" gradientUnits="userSpaceOnUse" xlink:href="#linearGradient2911"/><linearGradient id="linearGradient2911"><stop id="stop2913" offset="0" style="stop-color:#fff;stop-opacity:1"/><stop id="stop2915" offset="1" style="stop-color:#fff;stop-opacity:0"/></linearGradient><radialGradient id="radialGradient5332" cx="10.275" cy="14.152" r="2.608" fx="10.275" fy="14.152" gradientUnits="userSpaceOnUse" xlink:href="#linearGradient10711"/><linearGradient id="linearGradient10711"><stop id="stop10713" offset="0" style="stop-color:#fff;stop-opacity:1"/><stop id="stop10715" offset="1" style="stop-color:#fff;stop-opacity:0"/></linearGradient><clipPath id="clipPath3496" clipPathUnits="userSpaceOnUse"><rect id="rect3498" width="13.278" height="22.634" x="5.31" y="1.232" ry="1.172" style="opacity:.62633481;fill:none;stroke:#000;stroke-width:.19602102;stroke-linecap:round;stroke-linejoin:miter;stroke-miterlimit:4;stroke-opacity:1;stroke-dasharray:none"/></clipPath><filter id="filter3484" width="1.401" height="1.237" x="-.2" y="-.118" color-interpolation-filters="sRGB"><feGaussianBlur id="feGaussianBlur3486" stdDeviation=".972"/></filter><radialGradient id="radialGradient5733" cx="13.332" cy="15.942" r="5.532" fx="13.332" fy="15.942" gradientTransform="matrix(0.6893609,-1.0862598,0.9319468,2.4028086,-10.716046,-4.1510534)" gradientUnits="userSpaceOnUse" spreadMethod="reflect" xlink:href="#linearGradient10711"/><linearGradient id="linearGradient3521"><stop id="stop3523" offset="0" style="stop-color:#fff;stop-opacity:1"/><stop id="stop3525" offset="1" style="stop-color:#fff;stop-opacity:0"/></linearGradient><linearGradient id="linearGradient5430" x1="9.154" x2="7.678" y1="3.249" y2="19.014" gradientUnits="userSpaceOnUse" xlink:href="#linearGradient3233"/><linearGradient id="linearGradient3233"><stop id="stop3235" offset="0" style="stop-color:#fff;stop-opacity:1"/><stop id="stop3237" offset="1" style="stop-color:#fff;stop-opacity:0"/></linearGradient><clipPath id="clipPath3531" clipPathUnits="userSpaceOnUse"><rect id="rect3533" width="13.278" height="22.634" x="5.31" y="1.232" ry="1.172" style="opacity:.62633481;fill:none;stroke:#000;stroke-width:.19602102;stroke-linecap:round;stroke-linejoin:miter;stroke-miterlimit:4;stroke-opacity:1;stroke-dasharray:none"/></clipPath><radialGradient id="radialGradient5470" cx="10.857" cy="16.091" r="5.324" fx="10.857" fy="16.091" gradientTransform="matrix(1.1106976,-0.4036489,0.6516398,1.7930801,-9.2127514,-4.7972628)" gradientUnits="userSpaceOnUse" spreadMethod="reflect" xlink:href="#linearGradient10711"/><linearGradient id="linearGradient3540"><stop id="stop3542" offset="0" style="stop-color:#fff;stop-opacity:1"/><stop id="stop3544" offset="1" style="stop-color:#fff;stop-opacity:0"/></linearGradient><linearGradient id="linearGradient5472" x1="9.154" x2="7.678" y1="3.249" y2="19.014" gradientUnits="userSpaceOnUse" xlink:href="#linearGradient3233"/><linearGradient id="linearGradient3547"><stop id="stop3549" offset="0" style="stop-color:#fff;stop-opacity:1"/><stop id="stop3551" offset="1" style="stop-color:#fff;stop-opacity:0"/></linearGradient><clipPath id="clipPath3553" clipPathUnits="userSpaceOnUse"><rect id="rect3555" width="13.278" height="22.634" x="5.31" y="1.232" ry="1.172" style="opacity:.62633481;fill:none;stroke:#000;stroke-width:.19602102;stroke-linecap:round;stroke-linejoin:miter;stroke-miterlimit:4;stroke-opacity:1;stroke-dasharray:none"/></clipPath><radialGradient id="radialGradient5643" cx="10.857" cy="16.091" r="5.324" fx="10.857" fy="16.091" gradientTransform="matrix(1.1106976,-0.4036489,0.6516398,1.7930801,-9.2127514,-4.7972628)" gradientUnits="userSpaceOnUse" spreadMethod="reflect" xlink:href="#linearGradient10711"/><linearGradient id="linearGradient3562"><stop id="stop3564" offset="0" style="stop-color:#fff;stop-opacity:1"/><stop id="stop3566" offset="1" style="stop-color:#fff;stop-opacity:0"/></linearGradient><linearGradient id="linearGradient5645" x1="9.154" x2="7.678" y1="3.249" y2="19.014" gradientUnits="userSpaceOnUse" xlink:href="#linearGradient3233"/><linearGradient id="linearGradient3569"><stop id="stop3571" offset="0" style="stop-color:#fff;stop-opacity:1"/><stop id="stop3573" offset="1" style="stop-color:#fff;stop-opacity:0"/></linearGradient><clipPath id="clipPath3575" clipPathUnits="userSpaceOnUse"><rect id="rect3577" width="13.278" height="22.634" x="5.31" y="1.232" ry="1.172" style="opacity:.62633481;fill:none;stroke:#000;stroke-width:.19602102;stroke-linecap:round;stroke-linejoin:miter;stroke-miterlimit:4;stroke-opacity:1;stroke-dasharray:none"/></clipPath><radialGradient id="radialGradient5639" cx="10.857" cy="16.091" r="5.324" fx="10.857" fy="16.091" gradientTransform="matrix(1.1106976,-0.4036489,0.6516398,1.7930801,-9.2127514,-4.7972628)" gradientUnits="userSpaceOnUse" spreadMethod="reflect" xlink:href="#linearGradient10711"/><linearGradient id="linearGradient3584"><stop id="stop3586" offset="0" style="stop-color:#fff;stop-opacity:1"/><stop id="stop3588" offset="1" style="stop-color:#fff;stop-opacity:0"/></linearGradient><linearGradient id="linearGradient5641" x1="9.154" x2="7.678" y1="3.249" y2="19.014" gradientUnits="userSpaceOnUse" xlink:href="#linearGradient3233"/><linearGradient id="linearGradient3591"><stop id="stop3593" offset="0" style="stop-color:#fff;stop-opacity:1"/><stop id="stop3595" offset="1" style="stop-color:#fff;stop-opacity:0"/></linearGradient><linearGradient id="linearGradient3626" x1="9.154" x2="7.678" y1="3.249" y2="19.014" gradientUnits="userSpaceOnUse" xlink:href="#linearGradient3233"/></defs><metadata id="metadata3523"/><g id="layer1" transform="translate(-527.56315,-508.72029)"><g id="g4089" transform="matrix(0.632462,0.1590039,-0.245305,0.4099544,539.17533,508.37279)"><path id="path3500" d="M 10.3366,13.200539 6,18.477013 l 3.9136329,0.405834 2.1376721,2.71884 2.17213,-0.67208 0.03816,-4.26501 2.386024,-1.837274 -6.31102,-1.626784 z" clip-path="url(#clipPath3496)" transform="matrix(1.0551164,0.00539891,-0.00539891,1.0551164,-0.4968868,-2.0741232)" style="opacity:.72597866;fill:#000;fill-opacity:1;fill-rule:evenodd;stroke:#000;stroke-width:1;stroke-linecap:butt;stroke-linejoin:miter;stroke-miterlimit:4;stroke-opacity:1;stroke-dasharray:none;filter:url(#filter3484)"/><path id="path3502" d="m 5.9993581,1.0078665 0.030014,16.1541545 3.9334799,0.451805 2.908213,2.112222 0.94824,-0.354911 0.678912,-3.627069 2.500151,-3.271242 L 5.9993581,1.0078665 z" style="fill:#000100;fill-rule:evenodd;stroke:#000100;stroke-width:3.73373699;stroke-linecap:butt;stroke-linejoin:round;stroke-miterlimit:4;stroke-opacity:1;stroke-dasharray:none"/><path id="path3504" d="M 5.9988381,1.0786288 5.904858,17.004495 9.9474386,17.362926 12.807145,19.847971 13.896313,19.36246 14.4157,15.803981 16.989046,12.530594 5.9988381,1.0786288 z" style="fill:#d3d7cf;fill-rule:evenodd;stroke:none"/><path id="path3506" d="m 5.9983584,1.1723776 -0.0935,15.8321174 4.0737621,0.344501 2.8454205,2.457434 1.168235,-0.388998 0.418708,-3.674306 L 16.968868,12.56939 5.9983584,1.1723776 z" style="fill:url(#radialGradient5639);fill-opacity:1;fill-rule:evenodd;stroke:none"/><path id="path2253" d="m 6.7153305,2.9231325 0.01726,13.1471245 3.1977189,0.292396 3.0595696,2.530815 0.795495,-3.622859 2.05043,-2.739915 -9.1204739,-9.6075615 z" style="fill:none;stroke:url(#linearGradient3626);stroke-width:1.72565639;stroke-linecap:butt;stroke-linejoin:miter;stroke-miterlimit:4;stroke-opacity:1;stroke-dasharray:none"/></g><g id="g4254" transform="matrix(0.632462,-0.1590039,-0.245305,-0.4099544,539.17533,539.20871)"><path id="path4256" d="M 10.3366,13.200539 6,18.477013 l 3.9136329,0.405834 2.1376721,2.71884 2.17213,-0.67208 0.03816,-4.26501 2.386024,-1.837274 -6.31102,-1.626784 z" clip-path="url(#clipPath3496)" transform="matrix(1.0551164,0.00539891,-0.00539891,1.0551164,-0.4968868,-2.0741232)" style="opacity:.72597866;fill:#000;fill-opacity:1;fill-rule:evenodd;stroke:#000;stroke-width:1;stroke-linecap:butt;stroke-linejoin:miter;stroke-miterlimit:4;stroke-opacity:1;stroke-dasharray:none;filter:url(#filter3484)"/><path id="path4258" d="m 5.9993581,1.0078665 0.030014,16.1541545 3.9334799,0.451805 2.908213,2.112222 0.94824,-0.354911 0.678912,-3.627069 2.500151,-3.271242 L 5.9993581,1.0078665 z" style="fill:#000100;fill-rule:evenodd;stroke:#000100;stroke-width:3.73373699;stroke-linecap:butt;stroke-linejoin:round;stroke-miterlimit:4;stroke-opacity:1;stroke-dasharray:none"/><path id="path4260" d="M 5.9988381,1.0786288 5.904858,17.004495 9.9474386,17.362926 12.807145,19.847971 13.896313,19.36246 14.4157,15.803981 16.989046,12.530594 5.9988381,1.0786288 z" style="fill:#d3d7cf;fill-rule:evenodd;stroke:none"/><path id="path4262" d="m 5.9983584,1.1723776 -0.0935,15.8321174 4.0737621,0.344501 2.8454205,2.457434 1.168235,-0.388998 0.418708,-3.674306 L 16.968868,12.56939 5.9983584,1.1723776 z" style="fill:url(#radialGradient5643);fill-opacity:1;fill-rule:evenodd;stroke:none"/><path id="path4264" d="m 6.7153305,2.9231325 0.01726,13.1471245 3.1977189,0.292396 3.0595696,2.530815 0.795495,-3.622859 2.05043,-2.739915 -9.1204739,-9.6075615 z" style="fill:none;stroke:url(#linearGradient5645);stroke-width:1.72565639;stroke-linecap:butt;stroke-linejoin:miter;stroke-miterlimit:4;stroke-opacity:1;stroke-dasharray:none"/></g><g id="g4270" transform="matrix(-0.1590039,-0.632462,-0.4099544,0.245305,558.49863,527.32994)"><path id="path4272" d="M 10.3366,13.200539 6,18.477013 l 3.9136329,0.405834 2.1376721,2.71884 2.17213,-0.67208 0.03816,-4.26501 2.386024,-1.837274 -6.31102,-1.626784 z" clip-path="url(#clipPath3496)" transform="matrix(1.0551164,0.00539891,-0.00539891,1.0551164,-0.4968868,-2.0741232)" style="opacity:.72597866;fill:#000;fill-opacity:1;fill-rule:evenodd;stroke:#000;stroke-width:1;stroke-linecap:butt;stroke-linejoin:miter;stroke-miterlimit:4;stroke-opacity:1;stroke-dasharray:none;filter:url(#filter3484)"/><path id="path4274" d="m 5.9993581,1.0078665 0.030014,16.1541545 3.9334799,0.451805 2.908213,2.112222 0.94824,-0.354911 0.678912,-3.627069 2.500151,-3.271242 L 5.9993581,1.0078665 z" style="fill:#000100;fill-rule:evenodd;stroke:#000100;stroke-width:3.73373699;stroke-linecap:butt;stroke-linejoin:round;stroke-miterlimit:4;stroke-opacity:1;stroke-dasharray:none"/><path id="path4276" d="M 5.9988381,1.0786288 5.904858,17.004495 9.9474386,17.362926 12.807145,19.847971 13.896313,19.36246 14.4157,15.803981 16.989046,12.530594 5.9988381,1.0786288 z" style="fill:#d3d7cf;fill-rule:evenodd;stroke:none"/><path id="path4278" d="m 5.9983584,1.1723776 -0.0935,15.8321174 4.0737621,0.344501 2.8454205,2.457434 1.168235,-0.388998 0.418708,-3.674306 L 16.968868,12.56939 5.9983584,1.1723776 z" style="fill:url(#radialGradient5470);fill-opacity:1;fill-rule:evenodd;stroke:none"/><path id="path4280" d="m 6.7153305,2.9231325 0.01726,13.1471245 3.1977189,0.292396 3.0595696,2.530815 0.795495,-3.622859 2.05043,-2.739915 -9.1204739,-9.6075615 z" style="fill:none;stroke:url(#linearGradient5472);stroke-width:1.72565639;stroke-linecap:butt;stroke-linejoin:miter;stroke-miterlimit:4;stroke-opacity:1;stroke-dasharray:none"/></g><g id="g4286" transform="matrix(0.1590039,-0.632462,0.4099544,0.245305,527.21565,527.4859)"><path id="path4288" d="M 10.3366,13.200539 6,18.477013 l 3.9136329,0.405834 2.1376721,2.71884 2.17213,-0.67208 0.03816,-4.26501 2.386024,-1.837274 -6.31102,-1.626784 z" clip-path="url(#clipPath3496)" transform="matrix(1.0551164,0.00539891,-0.00539891,1.0551164,-0.4968868,-2.0741232)" style="opacity:.72597866;fill:#000;fill-opacity:1;fill-rule:evenodd;stroke:#000;stroke-width:1;stroke-linecap:butt;stroke-linejoin:miter;stroke-miterlimit:4;stroke-opacity:1;stroke-dasharray:none;filter:url(#filter3484)"/><path id="path4290" d="m 5.9993581,1.0078665 0.030014,16.1541545 3.9334799,0.451805 2.908213,2.112222 0.94824,-0.354911 0.678912,-3.627069 2.500151,-3.271242 L 5.9993581,1.0078665 z" style="fill:#000100;fill-rule:evenodd;stroke:#000100;stroke-width:3.73373699;stroke-linecap:butt;stroke-linejoin:round;stroke-miterlimit:4;stroke-opacity:1;stroke-dasharray:none"/><path id="path4292" d="M 5.9988381,1.0786288 5.904858,17.004495 9.9474386,17.362926 12.807145,19.847971 13.896313,19.36246 14.4157,15.803981 16.989046,12.530594 5.9988381,1.0786288 z" style="fill:#d3d7cf;fill-rule:evenodd;stroke:none"/><path id="path4294" d="m 5.9983584,1.1723776 -0.0935,15.8321174 4.0737621,0.344501 2.8454205,2.457434 1.168235,-0.388998 0.418708,-3.674306 L 16.968868,12.56939 5.9983584,1.1723776 z" style="fill:url(#radialGradient5733);fill-opacity:1;fill-rule:evenodd;stroke:none"/><path id="path4296" d="m 6.7153305,2.9231325 0.01726,13.1471245 3.1977189,0.292396 3.0595696,2.530815 0.795495,-3.622859 2.05043,-2.739915 -9.1204739,-9.6075615 z" style="fill:none;stroke:url(#linearGradient5430);stroke-width:1.72565639;stroke-linecap:butt;stroke-linejoin:miter;stroke-miterlimit:4;stroke-opacity:1;stroke-dasharray:none"/></g><g id="g5326" transform="matrix(0.6718891,0,0,0.6718891,535.24555,516.28343)"><path id="path5324" d="m 13.563471,12.480784 c 0,1.200695 -0.973355,2.17405 -2.17405,2.17405 -1.200694,0 -2.1740487,-0.973355 -2.1740487,-2.17405 0,-1.200694 0.9733547,-2.174049 2.1740487,-2.174049 1.200695,0 2.17405,0.973355 2.17405,2.174049 z" transform="matrix(1.1533459,0,0,1.1533459,-1.475166,-3.0554381)" style="fill:#000100;fill-opacity:1;fill-rule:nonzero;stroke:#000100;stroke-width:2.75798559;stroke-linecap:round;stroke-linejoin:round;stroke-miterlimit:4;stroke-opacity:1;stroke-dasharray:none"/><path id="path4149" d="m 13.563471,12.480784 c 0,1.200695 -0.973355,2.17405 -2.17405,2.17405 -1.200694,0 -2.1740487,-0.973355 -2.1740487,-2.17405 0,-1.200694 0.9733547,-2.174049 2.1740487,-2.174049 1.200695,0 2.17405,0.973355 2.17405,2.174049 z" transform="matrix(1.1767003,0,0,1.1767003,-1.7411594,-3.3469196)" style="fill:#d3d7cf;fill-opacity:1;fill-rule:nonzero;stroke:none"/><path id="path5301" d="m 13.563471,12.480784 c 0,1.200695 -0.973355,2.17405 -2.17405,2.17405 -1.200694,0 -2.1740487,-0.973355 -2.1740487,-2.17405 0,-1.200694 0.9733547,-2.174049 2.1740487,-2.174049 1.200695,0 2.17405,0.973355 2.17405,2.174049 z" transform="matrix(1.1716595,0,0,1.1716595,-1.6439328,-3.3039138)" style="fill:url(#radialGradient5332);fill-opacity:1;fill-rule:nonzero;stroke:none"/></g><path id="path5721" d="m 18.561553,16.75301 c 0,0.854272 -0.692524,1.546796 -1.546796,1.546796 -0.854272,0 -1.546796,-0.692524 -1.546796,-1.546796 0,-0.854272 0.692524,-1.546796 1.546796,-1.546796 0.854272,0 1.546796,0.692524 1.546796,1.546796 z" transform="matrix(0.7904011,0,0,0.770198,529.65627,511.00487)" style="opacity:.82206403;fill:none;stroke:url(#linearGradient5729);stroke-width:1.23586035;stroke-linecap:round;stroke-linejoin:round;stroke-miterlimit:4;stroke-opacity:1;stroke-dasharray:none"/></g></svg>