<svg xmlns="http://www.w3.org/2000/svg" xmlns:svg="http://www.w3.org/2000/svg" xmlns:xlink="http://www.w3.org/1999/xlink" id="svg3408" width="128" height="128" version="1.0"><metadata/><defs id="defs3410"><linearGradient id="linearGradient3365"><stop id="stop3367" offset="0" style="stop-color:#fff;stop-opacity:1"/><stop id="stop3369" offset="1" style="stop-color:#fff;stop-opacity:0"/></linearGradient><linearGradient id="linearGradient6310"><stop id="stop6312" offset="0" style="stop-color:#b900c4;stop-opacity:1"/><stop id="stop6314" offset="1" style="stop-color:#ae4300;stop-opacity:1"/></linearGradient><linearGradient id="linearGradient3051"><stop id="stop3053" offset="0" style="stop-color:#0968ef;stop-opacity:1"/><stop id="stop3055" offset="1" style="stop-color:#aecffc;stop-opacity:1"/></linearGradient><linearGradient id="linearGradient3768" x1="23.5" x2="140.198" y1="64" y2="32.731" gradientUnits="userSpaceOnUse" xlink:href="#linearGradient3051"/><linearGradient id="linearGradient3772" x1="100" x2="32" y1="120" y2="20" gradientUnits="userSpaceOnUse" xlink:href="#linearGradient6310"/><linearGradient id="linearGradient2476" x1="32" x2="54.052" y1="88.469" y2="6.171" gradientTransform="translate(-4,0)" gradientUnits="userSpaceOnUse" xlink:href="#linearGradient6310"/><linearGradient id="linearGradient2474" x1="23.5" x2="140.198" y1="64" y2="32.731" gradientTransform="translate(-4,0)" gradientUnits="userSpaceOnUse" xlink:href="#linearGradient3051"/><linearGradient id="linearGradient2468"><stop id="stop2470" offset="0" style="stop-color:#0968ef;stop-opacity:1"/><stop id="stop2472" offset="1" style="stop-color:#aecffc;stop-opacity:1"/></linearGradient><linearGradient id="linearGradient2462"><stop id="stop2464" offset="0" style="stop-color:#b900c4;stop-opacity:1"/><stop id="stop2466" offset="1" style="stop-color:#ae4300;stop-opacity:1"/></linearGradient><linearGradient id="linearGradient3195"><stop id="stop3197" offset="0" style="stop-color:#99c2fc;stop-opacity:1"/><stop id="stop3199" offset="1" style="stop-color:#dceafe;stop-opacity:1"/></linearGradient><linearGradient id="linearGradient3201"><stop id="stop3203" offset="0" style="stop-color:#fbaeff;stop-opacity:1"/><stop id="stop3205" offset="1" style="stop-color:#ffd7d7;stop-opacity:1"/></linearGradient><linearGradient id="linearGradient3296" x1="78.349" x2="92" y1="104" y2="52" gradientUnits="userSpaceOnUse" xlink:href="#linearGradient3195"/><linearGradient id="linearGradient3298" x1="23.5" x2="64.5" y1="92" y2="92" gradientUnits="userSpaceOnUse" xlink:href="#linearGradient3201"/><linearGradient id="linearGradient3371" x1="95.013" x2="108.269" y1="48.888" y2="71.847" gradientUnits="userSpaceOnUse" xlink:href="#linearGradient3365"/><linearGradient id="linearGradient3379" x1="69" x2="69" y1="59.972" y2="100.012" gradientUnits="userSpaceOnUse" xlink:href="#linearGradient3365"/><linearGradient id="linearGradient3381" x1="44.159" x2="94.739" y1="124.522" y2="73.941" gradientUnits="userSpaceOnUse" xlink:href="#linearGradient3201"/></defs><g id="layer1"><path id="path2518" d="M 64,80 L 64,116 L 104,116 L 104,40 L 80,48 L 64,80 z" style="fill:url(#linearGradient3296);fill-rule:evenodd;stroke:none;stroke-width:1px;stroke-linecap:butt;stroke-linejoin:miter;stroke-opacity:1;fill-opacity:1"/><path id="path3452" d="M 120,118 L 116,116 L 108,112 L 108,116 L 8,116 L 8,120 L 108,120 L 108,124 L 116,120 L 120,118 z" style="opacity:.61386138;fill:#797979;fill-opacity:1;stroke:none;stroke-width:1;stroke-linecap:round;stroke-linejoin:round;stroke-miterlimit:4;stroke-dasharray:none;stroke-dashoffset:0;stroke-opacity:1"/><rect id="rect3564" width="8" height="4" x="4" y="96" rx="0" ry="0" style="opacity:1;fill:#787878;fill-opacity:.61568627;stroke:none;stroke-width:1;stroke-linecap:round;stroke-linejoin:round;stroke-miterlimit:4;stroke-dasharray:none;stroke-dashoffset:0;stroke-opacity:1"/><rect id="rect3566" width="8" height="4" x="4" y="76" rx="0" ry="0" style="opacity:1;fill:#787878;fill-opacity:.61568627;stroke:none;stroke-width:1;stroke-linecap:round;stroke-linejoin:round;stroke-miterlimit:4;stroke-dasharray:none;stroke-dashoffset:0;stroke-opacity:1"/><rect id="rect3568" width="8" height="4" x="4" y="56" rx="0" ry="0" style="opacity:1;fill:#787878;fill-opacity:.61568627;stroke:none;stroke-width:1;stroke-linecap:round;stroke-linejoin:round;stroke-miterlimit:4;stroke-dasharray:none;stroke-dashoffset:0;stroke-opacity:1"/><rect id="rect3572" width="8" height="4" x="4" y="36" rx="0" ry="0" style="opacity:1;fill:#787878;fill-opacity:.61568627;stroke:none;stroke-width:1;stroke-linecap:round;stroke-linejoin:round;stroke-miterlimit:4;stroke-dasharray:none;stroke-dashoffset:0;stroke-opacity:1"/><rect id="rect3574" width="8" height="4" x="-124" y="92" rx="0" ry="0" transform="matrix(0,-1,1,0,0,0)" style="opacity:1;fill:#787878;fill-opacity:.61568627;stroke:none;stroke-width:1;stroke-linecap:round;stroke-linejoin:round;stroke-miterlimit:4;stroke-dasharray:none;stroke-dashoffset:0;stroke-opacity:1"/><rect id="rect3576" width="8" height="4" x="-124" y="72" rx="0" ry="0" transform="matrix(0,-1,1,0,0,0)" style="opacity:1;fill:#787878;fill-opacity:.61568627;stroke:none;stroke-width:1;stroke-linecap:round;stroke-linejoin:round;stroke-miterlimit:4;stroke-dasharray:none;stroke-dashoffset:0;stroke-opacity:1"/><rect id="rect3578" width="8" height="4" x="-124" y="52" rx="0" ry="0" transform="matrix(0,-1,1,0,0,0)" style="opacity:1;fill:#787878;fill-opacity:.61568627;stroke:none;stroke-width:1;stroke-linecap:round;stroke-linejoin:round;stroke-miterlimit:4;stroke-dasharray:none;stroke-dashoffset:0;stroke-opacity:1"/><rect id="rect3580" width="8" height="4" x="-124" y="32" rx="0" ry="0" transform="matrix(0,-1,1,0,0,0)" style="opacity:1;fill:#787878;fill-opacity:.61568627;stroke:none;stroke-width:1;stroke-linecap:round;stroke-linejoin:round;stroke-miterlimit:4;stroke-dasharray:none;stroke-dashoffset:0;stroke-opacity:1"/><path id="path3447" d="M 10,8 L 8,12 L 4,20 L 8,20 L 8,116 L 12,116 L 12,20 L 16,20 L 12,12 L 10,8 z" style="opacity:.61386138;fill:#797979;fill-opacity:1;stroke:none;stroke-width:1;stroke-linecap:round;stroke-linejoin:round;stroke-miterlimit:4;stroke-dasharray:none;stroke-dashoffset:0;stroke-opacity:1"/><path id="path3349" d="M 104 40 L 80 48 L 66.125 75.75 C 82.157968 74.535034 95.949349 68.799985 104 60.65625 L 104 40 z" style="opacity:.7970297;fill:url(#linearGradient3371);fill-opacity:1;stroke:none;stroke-width:6.14200020000000002;stroke-linecap:square;stroke-linejoin:miter;stroke-miterlimit:4;stroke-dasharray:none;stroke-dashoffset:0;stroke-opacity:1"/><path id="path2982" d="M 24,104 L 56,96 L 80,48 L 104,40" style="fill:none;fill-rule:evenodd;stroke:url(#linearGradient3768);stroke-width:4;stroke-linecap:round;stroke-linejoin:round;stroke-opacity:1;fill-opacity:1;stroke-miterlimit:4;stroke-dasharray:none"/><path id="path2516" d="M 56 68 L 24 92 L 24 116 L 64 116 L 104 116 L 104 88 L 80 104 L 64 80 L 56 68 z" style="fill:url(#linearGradient3381);fill-rule:evenodd;stroke:none;stroke-width:1px;stroke-linecap:butt;stroke-linejoin:miter;stroke-opacity:1;fill-opacity:1"/><path id="path3347" d="M 56 68 L 34.6875 83.96875 C 42.12183 86.520968 50.679506 88 59.78125 88 C 62.929407 88 66.006311 87.801909 69 87.46875 L 64 80 L 56 68 z" style="opacity:.96039604000000001;fill:url(#linearGradient3379);fill-opacity:1;stroke:none;stroke-width:6.14200020000000002;stroke-linecap:square;stroke-linejoin:miter;stroke-miterlimit:4;stroke-dasharray:none;stroke-dashoffset:0;stroke-opacity:1"/><path id="path3770" d="M 24,92 L 56,68 L 80,104 L 104,88" style="fill:none;fill-rule:evenodd;stroke:url(#linearGradient3772);stroke-width:4;stroke-linecap:round;stroke-linejoin:round;stroke-opacity:1;fill-opacity:1;stroke-miterlimit:4;stroke-dasharray:none"/><path id="path3325" d="M 24,104 L 56,96 L 80,48 L 104,40" style="fill:none;fill-rule:evenodd;stroke:url(#linearGradient3768);stroke-width:4;stroke-linecap:round;stroke-linejoin:round;stroke-opacity:1;fill-opacity:1;stroke-miterlimit:4;stroke-dasharray:none;opacity:.15841584"/></g></svg>