<svg xmlns="http://www.w3.org/2000/svg" xmlns:cc="http://web.resource.org/cc/" xmlns:svg="http://www.w3.org/2000/svg" xmlns:xlink="http://www.w3.org/1999/xlink" id="svg2" width="48" height="48" version="1.0"><metadata/><defs id="defs4"><linearGradient id="linearGradient6918"><stop id="stop6920" offset="0" style="stop-color:#fcaf3e;stop-opacity:1"/><stop id="stop6922" offset="1" style="stop-color:#fff;stop-opacity:1"/></linearGradient><radialGradient id="radialGradient3359" cx="12.156" cy="16.969" r="7.844" fx="12.156" fy="16.969" gradientTransform="matrix(1,0,0,0.537849,0,7.842131)" gradientUnits="userSpaceOnUse" xlink:href="#linearGradient3209"/><linearGradient id="linearGradient3263"><stop id="stop3265" offset="0" style="stop-color:white;stop-opacity:1"/><stop id="stop3267" offset="1" style="stop-color:white;stop-opacity:0"/></linearGradient><linearGradient id="linearGradient3209"><stop id="stop3211" offset="0" style="stop-color:black;stop-opacity:1"/><stop id="stop3213" offset="1" style="stop-color:black;stop-opacity:0"/></linearGradient><linearGradient id="linearGradient3854" x1="20.875" x2="52.219" y1="24.563" y2="13.597" gradientTransform="matrix(0,1,-1,0,44.01386,-2.96967)" gradientUnits="userSpaceOnUse" xlink:href="#linearGradient3263"/><linearGradient id="linearGradient6924" x1="13.875" x2="13.875" y1="44.382" y2="-28.979" gradientUnits="userSpaceOnUse" xlink:href="#linearGradient6918"/></defs><g id="layer1" style="display:inline"><path id="path3323" d="M 20 16.96875 A 7.84375 4.21875 0 1 1 4.3125,16.96875 A 7.84375 4.21875 0 1 1 20 16.96875 z" transform="matrix(2.8047804,0,0,2.133333,-10.095615,2.8)" style="opacity:.15;color:#000;fill:url(#radialGradient3359);fill-opacity:1;fill-rule:nonzero;stroke:none;stroke-width:1;stroke-linecap:round;stroke-linejoin:miter;marker:none;marker-start:none;marker-mid:none;marker-end:none;stroke-miterlimit:4;stroke-dasharray:none;stroke-dashoffset:1.4;stroke-opacity:1;visibility:visible;display:inline;overflow:visible"/><path id="path5945" d="M 29.34375,9.03125 C 28.83595,9.1090983 28.462869,9.5488006 28.46875,10.0625 L 28.46875,16.5 L 18.53125,16.5 L 18.53125,10.125 C 18.523927,9.7217437 18.282212,9.3597578 17.912551,9.1984511 C 17.54289,9.0371444 17.11312,9.1061188 16.8125,9.375 L 2.8125,22.28125 C 2.6060825,22.476094 2.4890941,22.747398 2.4890941,23.03125 C 2.4890941,23.315102 2.6060825,23.586406 2.8125,23.78125 L 16.8125,36.75 C 17.11312,37.018881 17.54289,37.087856 17.912551,36.926549 C 18.282212,36.765242 18.523927,36.403256 18.53125,36 L 18.53125,29.5625 L 28.46875,29.5625 L 28.46875,35.9375 C 28.476073,36.340756 28.717788,36.702742 29.087449,36.864049 C 29.45711,37.025356 29.88688,36.956381 30.1875,36.6875 L 44.1875,23.78125 C 44.393917,23.586406 44.510906,23.315102 44.510906,23.03125 C 44.510906,22.747398 44.393917,22.476094 44.1875,22.28125 L 30.1875,9.3125 C 29.963199,9.0960678 29.65305,8.9926846 29.34375,9.03125 z" style="color:#000;fill:url(#linearGradient6924);fill-opacity:1;fill-rule:nonzero;stroke:#ce5c00;stroke-width:.99999994;stroke-linecap:round;stroke-linejoin:miter;marker:none;marker-start:none;marker-mid:none;marker-end:none;stroke-miterlimit:4;stroke-dashoffset:1.4;stroke-opacity:1;visibility:visible;display:inline;overflow:visible"/><path id="path3392" d="M 29.5,10.03125 L 29.5,17.53125 L 17.5,17.53125 L 17.5,10.125 L 3.46875,23.0625 L 17.5,36.03125 L 17.5,28.53125 L 29.5,28.53125 L 29.5,35.9375 L 43.53125,23 L 29.5,10.03125 z" style="color:#000;fill:none;fill-opacity:1;fill-rule:nonzero;stroke:url(#linearGradient3854);stroke-width:.99999994;stroke-linecap:round;stroke-linejoin:round;marker:none;marker-start:none;marker-mid:none;marker-end:none;stroke-miterlimit:4;stroke-dashoffset:1.4;stroke-opacity:1;visibility:visible;display:inline;overflow:visible"/></g></svg>