<svg xmlns="http://www.w3.org/2000/svg" xmlns:svg="http://www.w3.org/2000/svg" id="svg4373" width="697.351" height="194.945" version="1.1"><defs id="defs4375"><filter id="filter4952" width="1.141" height="1.795" x="-.071" y="-.398" color-interpolation-filters="sRGB"><feGaussianBlur id="feGaussianBlur4954" stdDeviation="17.99"/></filter></defs><g id="layer1" transform="translate(-51.105626,-9.1725929)"><g id="g4956"><path id="rect4920" d="m 159.75,52.348217 0,108.593753 23.40625,0 0,-108.593753 -23.40625,0 z m 456.625,0 0,108.593753 23.4375,0 0,-108.593753 -23.4375,0 z m -478.71875,12.78125 0,83.031253 17.03125,0 0,-83.031253 -17.03125,0 z m 50.5625,0 0,83.031253 17.03125,0 0,-83.031253 -17.03125,0 z m 406.09375,0 0,83.031253 17.03125,0 0,-83.031253 -17.03125,0 z m 50.5625,0 0,83.031253 17.03125,0 0,-83.031253 -17.03125,0 z m -550.59375,31.9375 0,19.156253 38.3125,0 0,-19.156253 -38.3125,0 z m 116.03125,0 0,19.156253 378.9375,0 0,-19.156253 -378.9375,0 z m 456.625,0 0,19.156253 38.34375,0 0,-19.156253 -38.34375,0 z" style="opacity:.7;fill:#000;fill-opacity:1;stroke:none;filter:url(#filter4952)"/><g id="g4907" transform="matrix(0.74509803,0,0,0.74509803,132.61035,-139.93289)"><rect style="fill:#000;fill-opacity:1;stroke:none" id="rect4381" width="508.571" height="25.714" x="104.286" y="318.076"/><rect style="fill:#000;fill-opacity:1;stroke:none" id="rect4891" width="31.429" height="145.714" x="36.429" y="258.076"/><rect id="rect4893" width="22.857" height="111.429" x="74.643" y="275.219" style="fill:#000;fill-opacity:1;stroke:none"/><rect style="fill:#000;fill-opacity:1;stroke:none" id="rect4895" width="22.857" height="111.429" x="6.786" y="275.219"/><rect id="rect4897" width="51.429" height="25.714" x="-51.429" y="318.076" style="fill:#000;fill-opacity:1;stroke:none"/><rect id="rect4899" width="31.429" height="145.714" x="649.286" y="258.076" style="fill:#000;fill-opacity:1;stroke:none"/><rect style="fill:#000;fill-opacity:1;stroke:none" id="rect4901" width="22.857" height="111.429" x="687.5" y="275.219"/><rect id="rect4903" width="22.857" height="111.429" x="619.643" y="275.219" style="fill:#000;fill-opacity:1;stroke:none"/><rect style="fill:#000;fill-opacity:1;stroke:none" id="rect4905" width="51.429" height="25.714" x="717.143" y="318.076"/></g></g></g><metadata/></svg>